<svg class="prefix__icon" viewBox="0 0 1025 1024" xmlns="http://www.w3.org/2000/svg" width="300" height="300"><path d="M1024.73 511.697A511.697 511.697 0 11513.033 0a511.697 511.697 0 01511.697 511.697z" fill="#FDDF6D"/><path d="M622.683 947.88A511.697 511.697 0 01280.37 55.87 511.697 511.697 0 10854.7 892.008 508.316 508.316 0 01622.04 947.88z" fill="#FCC56B"/><path d="M572.447 353.261a148.453 148.453 0 11-148.454-148.453A148.453 148.453 0 01572.447 353.26zm416.217 0A148.453 148.453 0 11840.21 204.808 148.453 148.453 0 01988.664 353.26z" fill="#FFF"/><path d="M293.09 558.069a68.752 68.752 0 00-68.752 68.752h137.666a68.913 68.913 0 00-68.914-68.752zm600.254-9.178a68.752 68.752 0 00-68.752 68.752h137.505a68.752 68.752 0 00-68.753-68.752z" fill="#F9A880"/><path d="M727.019 717.954H505.305a20.77 20.77 0 110-41.541h221.714a20.77 20.77 0 110 41.54zM490.492 353.26a41.702 41.702 0 11-41.542-41.541 41.541 41.541 0 0141.542 41.541zm422.496 0a41.702 41.702 0 11-42.185-41.541 41.702 41.702 0 0141.702 41.541z" fill="#7F184C"/><path d="M604.971 77.769c56.677 16.101 95.48 54.905 86.464 86.625s-62.15 44.922-118.988 28.82-95.641-54.743-86.625-86.463 62.956-45.083 119.15-28.982z" fill="#FCEB88"/></svg>